<?xml version="1.0" encoding="UTF-8"?>
<svg id="Layer_1" data-name="Layer 1" xmlns="http://www.w3.org/2000/svg" viewBox="0 0 651.25 651.18">
  <defs>
    <style>
      .cls-1 {
        fill: #f4d4d9;
        stroke: #5a5a5a;
        stroke-miterlimit: 10;
      }
    </style>
  </defs>
  <path class="cls-1" d="m326.46.51C144.12-.75,1.2,144.78.5,322.54c-.75,188.08,143.78,328.13,321.86,328.14,195.74.01,325.3-149.92,328.33-319.7C654.17,135.86,497.61-.03,326.46.51Zm125.66,460.12c-80.6-.07-161.2.28-241.8-.02-20.7-.08-20.22-.94-20.2-21.94.07-78.57-.01-157.13-.6-235.69-.08-10.03,2.71-12.74,12.48-12.58,31.95.5,63.92.37,95.88-.12,8.48-.13,10.97,2.49,10.92,10.92-.31,59.37-.16,118.74-.15,178.11v13.8c46.23,0,90.61,0,134.99.01q16.31,0,16.26,16.65c-.02,14.22-.09,28.44.17,42.66.11,5.79-1.77,8.21-7.95,8.2Z"/>
</svg>