<?xml version="1.0" encoding="UTF-8"?>
<svg id="Layer_1" data-name="Layer 1" xmlns="http://www.w3.org/2000/svg" viewBox="0 0 1638.83 175.94">
  <defs>
    <style>
      .cls-1 {
        fill: #009913;
      }

      .cls-2 {
        fill: #a0af5a;
      }

      .cls-3 {
        fill: #50a436;
      }
    </style>
  </defs>
  <g id="path614282">
    <rect class="cls-1" y="0" width="76" height="173.72" vector-effect="non-scaling-stroke"/>
  </g>
  <g id="path614282-2" data-name="path614282">
    <rect class="cls-2" x="0" y="130.3" width="173.72" height="43.43" vector-effect="non-scaling-stroke"/>
  </g>
  <g id="path614282-3" data-name="path614282">
    <rect class="cls-3" x="0" y="130.3" width="76" height="43.43" vector-effect="non-scaling-stroke"/>
  </g>
  <g id="path614284">
    <rect class="cls-2" x="207.47" y="0" width="76" height="43.43" vector-effect="non-scaling-stroke"/>
  </g>
  <g id="path614284-2" data-name="path614284">
    <rect class="cls-1" x="207.47" y="65.15" width="76" height="108.57" vector-effect="non-scaling-stroke"/>
  </g>
  <g id="path614286">
    <rect class="cls-1" x="364" y="0" width="76" height="173.72" vector-effect="non-scaling-stroke"/>
  </g>
  <g id="path614286-2" data-name="path614286">
    <rect class="cls-2" x="315.14" y="0" width="173.72" height="43.43" vector-effect="non-scaling-stroke"/>
  </g>
  <g id="path614286-3" data-name="path614286">
    <rect class="cls-3" x="364" width="76" height="43.43" vector-effect="non-scaling-stroke"/>
  </g>
  <g id="path614288">
    <rect class="cls-1" x="570.71" y="0" width="76" height="173.72" vector-effect="non-scaling-stroke"/>
  </g>
  <g id="path614288-2" data-name="path614288">
    <rect class="cls-2" x="521.85" y="0" width="173.72" height="43.43" vector-effect="non-scaling-stroke"/>
  </g>
  <g id="path614288-3" data-name="path614288">
    <rect class="cls-3" x="570.71" width="76" height="43.43" vector-effect="non-scaling-stroke"/>
  </g>
  <g id="path614290">
    <rect class="cls-1" x="728.56" y="57.9" width="173.72" height="115.81" vector-effect="non-scaling-stroke"/>
  </g>
  <g id="path614290-2" data-name="path614290">
    <rect class="cls-2" x="728.56" y=".01" width="173.72" height="115.81" vector-effect="non-scaling-stroke"/>
  </g>
  <g id="path614290-3" data-name="path614290">
    <rect class="cls-3" x="728.56" y="57.91" width="173.72" height="57.91" vector-effect="non-scaling-stroke"/>
  </g>
  <g id="path614292">
    <polygon class="cls-2" points="1108.99 173.72 935.28 173.72 935.28 0 1108.99 173.72" vector-effect="non-scaling-stroke"/>
  </g>
  <g id="path614292-2" data-name="path614292">
    <path class="cls-1" d="m1043.85.01h-108.57v130.29h108.57c35.98,0,65.14-29.17,65.14-65.14S1079.83.01,1043.85.01Z" vector-effect="non-scaling-stroke"/>
  </g>
  <g id="path614292-3" data-name="path614292">
    <path class="cls-3" d="m935.26.01v130.29h108.57c6.58,0,12.92-1,18.91-2.81L935.26.01Z" vector-effect="non-scaling-stroke"/>
  </g>
  <g id="path614294">
    <rect class="cls-1" x="1142.48" y="130.67" width="45.28" height="45.28" vector-effect="non-scaling-stroke"/>
  </g>
  <g id="path614296">
    <rect class="cls-1" x="1218.37" y="0" width="76" height="173.72" vector-effect="non-scaling-stroke"/>
  </g>
  <g id="path614296-2" data-name="path614296">
    <rect class="cls-2" x="1218.37" y="130.3" width="173.72" height="43.43" vector-effect="non-scaling-stroke"/>
  </g>
  <g id="path614296-3" data-name="path614296">
    <rect class="cls-3" x="1218.37" y="130.3" width="76" height="43.43" vector-effect="non-scaling-stroke"/>
  </g>
  <g id="path614298">
    <rect class="cls-2" x="1474.7" y="0" width="76" height="173.72" vector-effect="non-scaling-stroke"/>
  </g>
  <g id="path614298-2" data-name="path614298">
    <path class="cls-1" d="m1425.84.01v43.43c0,47.97,38.89,86.86,86.86,86.86h126.13V.01h-212.99Z" vector-effect="non-scaling-stroke"/>
  </g>
  <g id="path614298-3" data-name="path614298">
    <path class="cls-3" d="m1550.69,130.3h-38c-13.63,0-26.52-3.15-38-8.74V.01h76v130.29Z" vector-effect="non-scaling-stroke"/>
  </g>
</svg>