<?xml version="1.0" encoding="UTF-8"?>
<svg id="Layer_1" data-name="Layer 1" xmlns="http://www.w3.org/2000/svg" viewBox="0 0 1923.23 316.44">
  <defs>
    <style>
      .cls-1 {
        fill: #009913;
      }

      .cls-2 {
        fill: #a0af5a;
      }

      .cls-3 {
        fill: #50a436;
      }
    </style>
  </defs>
  <g id="path614201">
    <path class="cls-1" d="m39.16,240.87c-2.8-.98-6.14-1.52-9.92-1.52-5.45,0-10.38,1.36-14.85,4.09s-7.95,6.36-10.53,10.98c-2.58,4.62-3.86,9.7-3.86,15.23s1.29,10.76,3.86,15.38c2.58,4.7,6.06,8.33,10.53,10.98,4.47,2.73,9.39,4.01,14.85,4.01,6.89,0,13.11-2.2,18.56-6.59.76-.76,1.21-1.74,1.21-2.8s-.38-1.97-.98-2.65-1.44-1.06-2.35-1.06c-.83,0-1.67.3-2.5.91-4.47,3.33-9.09,5-13.94,5-3.94,0-7.58-.98-10.91-3.11-3.33-2.05-5.91-4.85-7.88-8.41-1.97-3.48-2.88-7.42-2.88-11.67s.91-8.03,2.88-11.59c1.97-3.56,4.55-6.36,7.88-8.48,3.33-2.05,6.97-3.11,10.91-3.11,3.11,0,5.68.45,7.65,1.21s3.94,2.05,6.06,3.79c.76.68,1.67.98,2.65.98.91,0,1.74-.3,2.5-.98.76-.61,1.14-1.44,1.14-2.5,0-.61-.15-1.21-.3-1.67-.23-.45-.61-.98-1.21-1.44-2.88-2.27-5.76-3.94-8.56-5Z" vector-effect="non-scaling-stroke"/>
  </g>
  <g id="path614203">
    <path class="cls-1" d="m89.81,258.57c-1.52-.76-3.64-1.21-6.29-1.21s-4.92.53-7.12,1.52c-2.27,1.06-4.09,2.42-5.61,4.17v-1.44c0-2.5-1.29-3.79-3.79-3.79-1.21,0-2.2.38-2.8.98-.68.68-.98,1.59-.98,2.8v33.86c0,1.29.3,2.27.98,2.88.61.61,1.59.91,2.8.91s2.2-.3,2.8-.98c.61-.61.98-1.59.98-2.8v-22.12c0-2.8,1.06-5.08,3.33-6.74,2.2-1.67,5.15-2.5,8.79-2.5,1.21,0,2.88.23,4.92.53.45.15.83.15,1.14.15,1.52,0,2.58-.76,3.03-2.42,0-.15.08-.38.08-.76,0-1.21-.76-2.2-2.27-3.03Z" vector-effect="non-scaling-stroke"/>
  </g>
  <g id="path614205">
    <path class="cls-1" d="m135.7,280.33c.61-.61.98-1.44.98-2.42,0-3.94-.76-7.5-2.27-10.61-1.52-3.03-3.71-5.45-6.51-7.2-2.88-1.67-6.21-2.58-10.08-2.58s-7.5.91-10.61,2.73-5.53,4.32-7.27,7.5c-1.74,3.18-2.58,6.82-2.58,10.83s.91,7.65,2.73,10.83c1.82,3.18,4.39,5.68,7.73,7.5,3.26,1.82,6.97,2.65,11.14,2.65,2.27,0,4.7-.38,7.27-1.29,2.58-.83,4.7-1.97,6.44-3.33.76-.61,1.21-1.36,1.21-2.27s-.45-1.82-1.36-2.58c-.61-.45-1.36-.76-2.27-.76-.98,0-1.82.3-2.5.83-1.06.83-2.42,1.52-4.09,2.05-1.67.61-3.18.83-4.7.83-3.86,0-7.12-1.06-9.77-3.26-2.65-2.12-4.24-5-4.77-8.56h28.79c.98,0,1.82-.3,2.5-.91Zm-26.89-13.26c2.27-1.97,5.3-3.03,9.01-3.03,3.33,0,5.98,1.06,8.11,3.03,2.05,2.05,3.33,4.77,3.79,8.11h-25.23c.61-3.33,2.05-6.06,4.32-8.11Z" vector-effect="non-scaling-stroke"/>
  </g>
  <g id="path614207">
    <path class="cls-1" d="m187.02,278.59c0-3.86-.98-7.5-2.8-10.68-1.82-3.18-4.32-5.76-7.5-7.58-3.18-1.82-6.67-2.8-10.53-2.8s-7.5.98-10.68,2.8c-3.18,1.82-5.68,4.39-7.5,7.58s-2.73,6.74-2.73,10.68.83,7.58,2.5,10.76c1.67,3.18,4.01,5.68,6.97,7.5,3.03,1.89,6.29,2.8,9.92,2.8h18.71c.98,0,1.82-.38,2.58-1.06.68-.68,1.06-1.52,1.06-2.58v-17.42Zm-32.57,7.27c-1.21-2.12-1.74-4.55-1.74-7.27s.53-5.08,1.74-7.27c1.21-2.12,2.8-3.86,4.85-5.08,2.05-1.21,4.32-1.89,6.89-1.89s4.77.68,6.82,1.89c2.05,1.21,3.64,2.95,4.85,5.08,1.14,2.2,1.74,4.62,1.74,7.27s-.61,5.15-1.74,7.27c-1.21,2.12-2.8,3.86-4.85,5.08-2.05,1.21-4.32,1.82-6.82,1.82s-4.85-.61-6.89-1.82c-2.05-1.21-3.64-2.95-4.85-5.08Z" vector-effect="non-scaling-stroke"/>
  </g>
  <g id="path614209">
    <path class="cls-1" d="m202.71,259.35v25.23c0,2.8.53,5.3,1.74,7.5,1.14,2.27,2.73,4.01,4.77,5.3,2.05,1.29,4.32,1.89,6.82,1.89h1.36c1.29,0,2.35-.3,3.18-1.06.83-.68,1.29-1.59,1.29-2.73,0-1.06-.38-1.97-.98-2.73-.61-.68-1.36-1.06-2.27-1.06h-2.58c-1.67,0-3.03-.68-4.09-2.05-1.14-1.36-1.67-3.03-1.67-5.08v-18.71h6.44c1.06,0,1.89-.3,2.58-.91.61-.61.98-1.36.98-2.27,0-.98-.38-1.82-.98-2.42-.68-.61-1.52-.91-2.58-.91h-6.44v-10.91c0-1.06-.38-1.97-1.06-2.73-.76-.68-1.67-1.06-2.73-1.06-1.14,0-2.05.38-2.73,1.06-.76.76-1.06,1.67-1.06,2.73v10.91Z" vector-effect="non-scaling-stroke"/>
  </g>
  <g id="path614211">
    <path class="cls-1" d="m269.87,280.33c.61-.61.98-1.44.98-2.42,0-3.94-.76-7.5-2.27-10.61-1.52-3.03-3.71-5.45-6.51-7.2-2.88-1.67-6.21-2.58-10.08-2.58s-7.5.91-10.61,2.73-5.53,4.32-7.27,7.5c-1.74,3.18-2.58,6.82-2.58,10.83s.91,7.65,2.73,10.83c1.82,3.18,4.39,5.68,7.73,7.5,3.26,1.82,6.97,2.65,11.14,2.65,2.27,0,4.7-.38,7.27-1.29,2.58-.83,4.7-1.97,6.44-3.33.76-.61,1.21-1.36,1.21-2.27s-.45-1.82-1.36-2.58c-.61-.45-1.36-.76-2.27-.76-.98,0-1.82.3-2.5.83-1.06.83-2.42,1.52-4.09,2.05-1.67.61-3.18.83-4.7.83-3.86,0-7.12-1.06-9.77-3.26-2.65-2.12-4.24-5-4.77-8.56h28.79c.98,0,1.82-.3,2.5-.91Zm-26.89-13.26c2.27-1.97,5.3-3.03,9.01-3.03,3.33,0,5.98,1.06,8.11,3.03,2.05,2.05,3.33,4.77,3.79,8.11h-25.23c.61-3.33,2.05-6.06,4.32-8.11Z" vector-effect="non-scaling-stroke"/>
  </g>
  <g id="path614213">
    <path class="cls-1" d="m344.92,278.59c0-3.86-.98-7.5-2.8-10.68-1.82-3.18-4.32-5.76-7.5-7.58-3.18-1.82-6.67-2.8-10.53-2.8s-7.5.98-10.68,2.8c-3.18,1.82-5.68,4.39-7.5,7.58-1.82,3.18-2.73,6.74-2.73,10.68s.83,7.58,2.5,10.76c1.67,3.18,4.01,5.68,6.97,7.5,3.03,1.89,6.29,2.8,9.92,2.8h18.71c.98,0,1.82-.38,2.58-1.06.68-.68,1.06-1.52,1.06-2.58v-17.42Zm-32.57,7.27c-1.21-2.12-1.74-4.55-1.74-7.27s.53-5.08,1.74-7.27c1.21-2.12,2.8-3.86,4.85-5.08,2.05-1.21,4.32-1.89,6.89-1.89s4.77.68,6.82,1.89c2.05,1.21,3.64,2.95,4.85,5.08,1.14,2.2,1.74,4.62,1.74,7.27s-.61,5.15-1.74,7.27c-1.21,2.12-2.8,3.86-4.85,5.08-2.05,1.21-4.32,1.82-6.82,1.82s-4.85-.61-6.89-1.82c-2.05-1.21-3.64-2.95-4.85-5.08Z" vector-effect="non-scaling-stroke"/>
  </g>
  <g id="path614215">
    <path class="cls-1" d="m404.37,259.12c-2.58-1.06-5.53-1.59-8.79-1.59-2.73,0-5.23.45-7.58,1.29-2.42.91-4.32,2.2-5.76,3.86-1.52,1.74-2.2,3.86-2.2,6.29,0,6.14,4.85,10.15,14.54,11.97,3.71.76,6.36,1.59,7.95,2.65,1.52,1.06,2.35,2.35,2.35,3.86,0,1.67-.83,2.95-2.42,3.86-1.59.98-3.79,1.44-6.67,1.44-2.2,0-4.24-.38-6.14-1.14-1.97-.76-3.41-1.74-4.32-2.8-.91-.91-1.89-1.36-2.88-1.36-.83,0-1.74.38-2.65,1.06-1.06.76-1.52,1.74-1.52,2.95,0,.91.3,1.74.98,2.35,1.67,1.74,4.09,3.11,7.12,4.17,3.03,1.06,6.21,1.59,9.7,1.59s6.36-.53,8.79-1.59c2.42-1.06,4.32-2.58,5.61-4.47,1.21-1.89,1.89-4.01,1.89-6.36,0-3.11-1.21-5.68-3.48-7.65-2.27-1.97-6.21-3.48-11.67-4.62-2.73-.53-4.77-1.06-6.14-1.67-1.44-.61-2.42-1.21-2.88-1.89-.53-.68-.76-1.52-.76-2.58,0-1.36.68-2.5,2.2-3.26,1.52-.76,3.41-1.21,5.76-1.21,1.97,0,3.71.3,5.15.76,1.36.45,2.73,1.29,4.01,2.42,1.06.98,2.2,1.44,3.56,1.44.83,0,1.52-.15,2.12-.61.83-.68,1.29-1.44,1.29-2.35,0-.76-.38-1.59-.98-2.42-1.52-1.82-3.64-3.33-6.21-4.39Z" vector-effect="non-scaling-stroke"/>
  </g>
  <g id="path614217">
    <path class="cls-1" d="m454.01,260.25c-3.18-1.82-6.74-2.73-10.68-2.73s-7.65.91-10.83,2.73c-3.18,1.82-5.68,4.24-7.42,7.42-1.82,3.18-2.65,6.82-2.65,10.91s.83,7.65,2.65,10.83c1.74,3.18,4.24,5.68,7.42,7.5,3.18,1.82,6.74,2.65,10.83,2.65s7.58-.83,10.76-2.65c3.18-1.82,5.61-4.32,7.42-7.5,1.74-3.18,2.65-6.74,2.65-10.83s-.91-7.73-2.73-10.91c-1.82-3.18-4.24-5.61-7.42-7.42Zm-17.65,5.91c2.05-1.21,4.39-1.82,6.97-1.82s4.85.61,6.89,1.82c2.05,1.21,3.64,2.95,4.77,5.08,1.14,2.2,1.74,4.62,1.74,7.35s-.61,5.23-1.74,7.35c-1.14,2.12-2.73,3.79-4.77,5-2.05,1.21-4.32,1.82-6.89,1.82s-4.92-.61-6.97-1.82c-2.05-1.21-3.64-2.88-4.77-5-1.21-2.12-1.74-4.62-1.74-7.35s.53-5.15,1.74-7.35c1.14-2.12,2.73-3.86,4.77-5.08Z" vector-effect="non-scaling-stroke"/>
  </g>
  <g id="path614219">
    <path class="cls-1" d="m511.36,264.34c-3.94-4.55-8.94-6.82-14.85-6.82-3.94,0-7.5.91-10.61,2.73-3.18,1.82-5.61,4.32-7.35,7.5-1.74,3.18-2.58,6.82-2.58,10.83s.83,7.58,2.65,10.76,4.32,5.68,7.5,7.5c3.18,1.82,6.74,2.73,10.76,2.73,5.45,0,10-1.67,13.64-5.08.61-.61.91-1.29.91-2.05,0-.98-.53-1.89-1.44-2.73-.61-.45-1.29-.68-1.97-.68-.91,0-1.89.38-2.8,1.06-2.12,1.82-4.92,2.65-8.33,2.65-2.65,0-5-.61-7.05-1.82-2.05-1.21-3.64-2.88-4.77-5-1.14-2.12-1.67-4.62-1.67-7.35,0-4.24,1.21-7.73,3.64-10.3,2.42-2.58,5.53-3.94,9.47-3.94,1.89,0,3.56.38,5.08.98,1.52.61,2.88,1.59,4.17,2.95.76.91,1.74,1.36,2.95,1.36.61,0,1.21-.15,1.74-.53,1.06-.76,1.67-1.67,1.67-2.8,0-.76-.3-1.36-.76-1.97Z" vector-effect="non-scaling-stroke"/>
  </g>
  <g id="path614221">
    <path class="cls-1" d="m527.85,258.89c-.76.76-1.06,1.67-1.06,2.8v33.71c0,1.14.3,2.05,1.06,2.8.76.76,1.67,1.06,2.8,1.06s2.05-.3,2.8-1.06c.68-.76,1.06-1.67,1.06-2.8v-33.71c0-1.14-.38-2.05-1.06-2.8-.76-.68-1.67-1.06-2.8-1.06s-2.05.38-2.8,1.06Z" vector-effect="non-scaling-stroke"/>
  </g>
  <g id="path614223">
    <path class="cls-1" d="m590.96,278.59c0-3.86-.98-7.5-2.8-10.68-1.82-3.18-4.32-5.76-7.5-7.58-3.18-1.82-6.67-2.8-10.53-2.8s-7.5.98-10.68,2.8c-3.18,1.82-5.68,4.39-7.5,7.58-1.82,3.18-2.73,6.74-2.73,10.68s.83,7.58,2.5,10.76c1.67,3.18,4.01,5.68,6.97,7.5,3.03,1.89,6.29,2.8,9.92,2.8h18.71c.98,0,1.82-.38,2.58-1.06.68-.68,1.06-1.52,1.06-2.58v-17.42Zm-32.57,7.27c-1.21-2.12-1.74-4.55-1.74-7.27s.53-5.08,1.74-7.27c1.21-2.12,2.8-3.86,4.85-5.08,2.05-1.21,4.32-1.89,6.89-1.89s4.77.68,6.82,1.89c2.05,1.21,3.64,2.95,4.85,5.08,1.14,2.2,1.74,4.62,1.74,7.27s-.61,5.15-1.74,7.27c-1.21,2.12-2.8,3.86-4.85,5.08-2.05,1.21-4.32,1.82-6.82,1.82s-4.85-.61-6.89-1.82c-2.05-1.21-3.64-2.95-4.85-5.08Z" vector-effect="non-scaling-stroke"/>
  </g>
  <g id="path614225">
    <path class="cls-1" d="m604.44,241.17c-.76.76-1.06,1.67-1.06,2.73v41.36c0,2.73.45,5.15,1.44,7.27.91,2.12,2.27,3.79,4.01,5,1.74,1.21,3.71,1.74,5.91,1.74h.15c1.52,0,2.73-.3,3.71-1.06.91-.68,1.44-1.59,1.44-2.73,0-1.06-.38-1.97-.98-2.73-.61-.68-1.44-1.06-2.42-1.06h-1.89c-1.14,0-2.05-.61-2.73-1.82-.76-1.21-1.06-2.73-1.06-4.62v-41.36c0-1.06-.38-1.97-1.06-2.73-.76-.68-1.67-1.06-2.73-1.06-1.14,0-2.05.38-2.73,1.06Z" vector-effect="non-scaling-stroke"/>
  </g>
  <g id="path614227">
    <path class="cls-1" d="m688.75,266.4c-1.59-2.88-3.79-5.15-6.51-6.67-2.65-1.36-5.53-2.12-8.71-2.2-.08,0-.23-.08-.23-.08h-17.42c-1.06,0-1.89.38-2.58,1.06-.76.76-1.06,1.59-1.06,2.58v34.39c0,1.14.3,2.05,1.06,2.8.76.76,1.67,1.06,2.8,1.06s2.05-.3,2.8-1.06c.68-.76,1.06-1.67,1.06-2.8v-21.36c0-1.82.45-3.41,1.44-4.92.98-1.44,2.35-2.58,4.09-3.48,1.74-.83,3.71-1.29,5.83-1.29,3.64,0,6.51,1.06,8.71,3.18,2.2,2.12,3.33,5.23,3.33,9.24v18.64c0,1.14.3,2.05,1.06,2.8.76.76,1.67,1.06,2.8,1.06,1.06,0,1.97-.3,2.73-1.06.76-.76,1.14-1.67,1.14-2.8v-18.64c0-4.09-.83-7.58-2.35-10.45Z" vector-effect="non-scaling-stroke"/>
  </g>
  <g id="path614229">
    <path class="cls-1" d="m742.44,280.33c.61-.61.98-1.44.98-2.42,0-3.94-.76-7.5-2.27-10.61-1.52-3.03-3.71-5.45-6.51-7.2-2.88-1.67-6.21-2.58-10.08-2.58s-7.5.91-10.61,2.73c-3.11,1.82-5.53,4.32-7.27,7.5-1.74,3.18-2.58,6.82-2.58,10.83s.91,7.65,2.73,10.83c1.82,3.18,4.39,5.68,7.73,7.5,3.26,1.82,6.97,2.65,11.14,2.65,2.27,0,4.7-.38,7.27-1.29,2.58-.83,4.7-1.97,6.44-3.33.76-.61,1.21-1.36,1.21-2.27s-.45-1.82-1.36-2.58c-.61-.45-1.36-.76-2.27-.76-.98,0-1.82.3-2.5.83-1.06.83-2.42,1.52-4.09,2.05-1.67.61-3.18.83-4.7.83-3.86,0-7.12-1.06-9.77-3.26-2.65-2.12-4.24-5-4.77-8.56h28.79c.98,0,1.82-.3,2.5-.91Zm-26.89-13.26c2.27-1.97,5.3-3.03,9.01-3.03,3.33,0,5.98,1.06,8.11,3.03,2.05,2.05,3.33,4.77,3.79,8.11h-25.23c.61-3.33,2.05-6.06,4.32-8.11Z" vector-effect="non-scaling-stroke"/>
  </g>
  <g id="path614231">
    <path class="cls-1" d="m757.39,259.35v25.23c0,2.8.53,5.3,1.74,7.5,1.14,2.27,2.73,4.01,4.77,5.3,2.05,1.29,4.32,1.89,6.82,1.89h1.36c1.29,0,2.35-.3,3.18-1.06.83-.68,1.29-1.59,1.29-2.73,0-1.06-.38-1.97-.98-2.73-.61-.68-1.36-1.06-2.27-1.06h-2.58c-1.67,0-3.03-.68-4.09-2.05-1.14-1.36-1.67-3.03-1.67-5.08v-18.71h6.44c1.06,0,1.89-.3,2.58-.91.61-.61.98-1.36.98-2.27,0-.98-.38-1.82-.98-2.42-.68-.61-1.52-.91-2.58-.91h-6.44v-10.91c0-1.06-.38-1.97-1.06-2.73-.76-.68-1.67-1.06-2.73-1.06-1.14,0-2.05.38-2.73,1.06-.76.76-1.06,1.67-1.06,2.73v10.91Z" vector-effect="non-scaling-stroke"/>
  </g>
  <g id="path614233">
    <path class="cls-1" d="m834.72,258.66c-.53-.53-1.29-.83-2.35-.83-1.97,0-3.26,1.21-3.94,3.48l-8.33,26.06-6.82-26.67c-.3-.83-.76-1.52-1.36-2.05-.61-.53-1.44-.83-2.35-.83-1.06,0-1.89.3-2.5.83-.61.53-1.06,1.21-1.29,2.05l-7.73,26.14-8.18-25.53c-.45-1.21-.98-2.05-1.59-2.65-.61-.53-1.44-.83-2.35-.83-2.12,0-3.18,1.06-3.18,3.18,0,.76.08,1.52.3,2.12l11.21,33.63c.23.76.68,1.36,1.36,1.82.68.45,1.44.68,2.27.68.76,0,1.52-.23,2.2-.68.68-.45,1.14-1.06,1.44-1.82l7.8-27.5,7.42,27.5c.15.76.61,1.36,1.29,1.82.68.45,1.44.68,2.35.68.76,0,1.52-.23,2.2-.68.61-.45,1.06-1.06,1.36-1.82l11.21-33.63c.23-.61.38-1.36.38-2.2,0-.91-.3-1.67-.83-2.27Z" vector-effect="non-scaling-stroke"/>
  </g>
  <g id="path614235">
    <path class="cls-1" d="m873.92,260.25c-3.18-1.82-6.74-2.73-10.68-2.73s-7.65.91-10.83,2.73c-3.18,1.82-5.68,4.24-7.42,7.42-1.82,3.18-2.65,6.82-2.65,10.91s.83,7.65,2.65,10.83c1.74,3.18,4.24,5.68,7.42,7.5,3.18,1.82,6.74,2.65,10.83,2.65s7.58-.83,10.76-2.65c3.18-1.82,5.61-4.32,7.42-7.5,1.74-3.18,2.65-6.74,2.65-10.83s-.91-7.73-2.73-10.91c-1.82-3.18-4.24-5.61-7.42-7.42Zm-17.65,5.91c2.05-1.21,4.39-1.82,6.97-1.82s4.85.61,6.89,1.82c2.05,1.21,3.64,2.95,4.77,5.08,1.14,2.2,1.74,4.62,1.74,7.35s-.61,5.23-1.74,7.35c-1.14,2.12-2.73,3.79-4.77,5-2.05,1.21-4.32,1.82-6.89,1.82s-4.92-.61-6.97-1.82c-2.05-1.21-3.64-2.88-4.77-5-1.21-2.12-1.74-4.62-1.74-7.35s.53-5.15,1.74-7.35c1.14-2.12,2.73-3.86,4.77-5.08Z" vector-effect="non-scaling-stroke"/>
  </g>
  <g id="path614237">
    <path class="cls-1" d="m924.6,258.57c-1.52-.76-3.64-1.21-6.29-1.21s-4.92.53-7.12,1.52c-2.27,1.06-4.09,2.42-5.61,4.17v-1.44c0-2.5-1.29-3.79-3.79-3.79-1.21,0-2.2.38-2.8.98-.68.68-.98,1.59-.98,2.8v33.86c0,1.29.3,2.27.98,2.88.61.61,1.59.91,2.8.91s2.2-.3,2.8-.98c.61-.61.98-1.59.98-2.8v-22.12c0-2.8,1.06-5.08,3.33-6.74,2.2-1.67,5.15-2.5,8.79-2.5,1.21,0,2.88.23,4.92.53.45.15.83.15,1.14.15,1.52,0,2.58-.76,3.03-2.42,0-.15.08-.38.08-.76,0-1.21-.76-2.2-2.27-3.03Z" vector-effect="non-scaling-stroke"/>
  </g>
  <g id="path614239">
    <path class="cls-1" d="m969.32,296.06c0-.91-.3-1.67-.83-2.27l-14.7-18.03,13.94-12.42c.76-.61,1.21-1.52,1.21-2.58,0-.91-.38-1.67-.98-2.35-.68-.76-1.52-1.21-2.58-1.21-.91,0-1.74.38-2.35.98l-18.41,16.44v-30.83c0-1.06-.38-1.97-1.06-2.65s-1.59-1.06-2.65-1.06c-1.14,0-2.05.38-2.73,1.06-.68.68-.98,1.59-.98,2.65v51.74c0,1.14.3,2.05.98,2.73.68.68,1.59.98,2.73.98,1.06,0,1.97-.3,2.65-.98.68-.68,1.06-1.59,1.06-2.73v-11.59l3.79-3.33,14.39,17.8c.68.91,1.59,1.36,2.73,1.36.83,0,1.67-.3,2.42-.91.91-.76,1.36-1.67,1.36-2.8Z" vector-effect="non-scaling-stroke"/>
  </g>
  <g id="path614241">
    <path class="cls-1" d="m1005.55,259.35v36.06c0,1.21.3,2.12,1.06,2.8.76.76,1.59,1.06,2.65,1.06,1.21,0,2.2-.3,2.95-1.06.68-.68,1.06-1.59,1.06-2.8v-29.54h7.73c1.06,0,1.89-.3,2.58-.91.61-.61.98-1.36.98-2.27,0-.98-.38-1.82-.98-2.42-.68-.61-1.51-.91-2.58-.91h-7.73v-2.05c0-3.03.83-5.53,2.58-7.42,1.67-1.82,3.94-2.8,6.82-2.8,1.06,0,1.97-.3,2.73-.98.76-.61,1.14-1.44,1.14-2.5,0-.98-.38-1.82-1.14-2.5-.76-.61-1.67-.98-2.73-.98-3.41,0-6.36.76-8.94,2.27-2.58,1.52-4.62,3.56-6.06,6.29-1.44,2.73-2.12,5.83-2.12,9.39v1.29Z" vector-effect="non-scaling-stroke"/>
  </g>
  <g id="path614243">
    <path class="cls-1" d="m1062.97,260.25c-3.18-1.82-6.74-2.73-10.68-2.73s-7.65.91-10.83,2.73-5.68,4.24-7.42,7.42c-1.82,3.18-2.65,6.82-2.65,10.91s.83,7.65,2.65,10.83c1.74,3.18,4.24,5.68,7.42,7.5,3.18,1.82,6.74,2.65,10.83,2.65s7.58-.83,10.76-2.65c3.18-1.82,5.61-4.32,7.42-7.5,1.74-3.18,2.65-6.74,2.65-10.83s-.91-7.73-2.73-10.91-4.24-5.61-7.42-7.42Zm-17.65,5.91c2.05-1.21,4.39-1.82,6.97-1.82s4.85.61,6.89,1.82c2.05,1.21,3.64,2.95,4.77,5.08,1.14,2.2,1.74,4.62,1.74,7.35s-.61,5.23-1.74,7.35c-1.14,2.12-2.73,3.79-4.77,5-2.05,1.21-4.32,1.82-6.89,1.82s-4.92-.61-6.97-1.82-3.64-2.88-4.77-5c-1.21-2.12-1.74-4.62-1.74-7.35s.53-5.15,1.74-7.35c1.14-2.12,2.73-3.86,4.77-5.08Z" vector-effect="non-scaling-stroke"/>
  </g>
  <g id="path614245">
    <path class="cls-1" d="m1113.69,258.57c-1.52-.76-3.64-1.21-6.29-1.21s-4.92.53-7.12,1.52c-2.27,1.06-4.09,2.42-5.61,4.17v-1.44c0-2.5-1.29-3.79-3.79-3.79-1.21,0-2.2.38-2.8.98-.68.68-.98,1.59-.98,2.8v33.86c0,1.29.3,2.27.98,2.88.61.61,1.59.91,2.8.91s2.2-.3,2.8-.98c.61-.61.98-1.59.98-2.8v-22.12c0-2.8,1.06-5.08,3.33-6.74,2.2-1.67,5.15-2.5,8.79-2.5,1.21,0,2.88.23,4.92.53.45.15.83.15,1.14.15,1.52,0,2.58-.76,3.03-2.42,0-.15.08-.38.08-.76,0-1.21-.76-2.2-2.27-3.03Z" vector-effect="non-scaling-stroke"/>
  </g>
  <g id="path614247">
    <path class="cls-1" d="m1181.74,264.34c-3.94-4.55-8.94-6.82-14.85-6.82-3.94,0-7.5.91-10.61,2.73-3.18,1.82-5.61,4.32-7.35,7.5-1.74,3.18-2.58,6.82-2.58,10.83s.83,7.58,2.65,10.76,4.32,5.68,7.5,7.5c3.18,1.82,6.74,2.73,10.76,2.73,5.45,0,10-1.67,13.64-5.08.61-.61.91-1.29.91-2.05,0-.98-.53-1.89-1.44-2.73-.61-.45-1.29-.68-1.97-.68-.91,0-1.89.38-2.8,1.06-2.12,1.82-4.92,2.65-8.33,2.65-2.65,0-5-.61-7.04-1.82-2.05-1.21-3.64-2.88-4.77-5-1.14-2.12-1.67-4.62-1.67-7.35,0-4.24,1.21-7.73,3.64-10.3,2.42-2.58,5.53-3.94,9.47-3.94,1.89,0,3.56.38,5.08.98,1.52.61,2.88,1.59,4.17,2.95.76.91,1.74,1.36,2.95,1.36.61,0,1.21-.15,1.74-.53,1.06-.76,1.67-1.67,1.67-2.8,0-.76-.3-1.36-.76-1.97Z" vector-effect="non-scaling-stroke"/>
  </g>
  <g id="path614249">
    <path class="cls-1" d="m1195.96,241.17c-.76.76-1.06,1.67-1.06,2.73v41.36c0,2.73.45,5.15,1.44,7.27.91,2.12,2.27,3.79,4.01,5,1.74,1.21,3.71,1.74,5.91,1.74h.15c1.52,0,2.73-.3,3.71-1.06.91-.68,1.44-1.59,1.44-2.73,0-1.06-.38-1.97-.98-2.73-.61-.68-1.44-1.06-2.42-1.06h-1.89c-1.14,0-2.05-.61-2.73-1.82-.76-1.21-1.06-2.73-1.06-4.62v-41.36c0-1.06-.38-1.97-1.06-2.73-.76-.68-1.67-1.06-2.73-1.06-1.14,0-2.05.38-2.73,1.06Z" vector-effect="non-scaling-stroke"/>
  </g>
  <g id="path614251">
    <path class="cls-1" d="m1255.57,280.33c.61-.61.98-1.44.98-2.42,0-3.94-.76-7.5-2.27-10.61-1.52-3.03-3.71-5.45-6.51-7.2-2.88-1.67-6.21-2.58-10.08-2.58s-7.5.91-10.61,2.73-5.53,4.32-7.27,7.5c-1.74,3.18-2.58,6.82-2.58,10.83s.91,7.65,2.73,10.83c1.82,3.18,4.39,5.68,7.73,7.5,3.26,1.82,6.97,2.65,11.14,2.65,2.27,0,4.7-.38,7.27-1.29,2.58-.83,4.7-1.97,6.44-3.33.76-.61,1.21-1.36,1.21-2.27s-.45-1.82-1.36-2.58c-.61-.45-1.36-.76-2.27-.76-.98,0-1.82.3-2.5.83-1.06.83-2.42,1.52-4.09,2.05-1.67.61-3.18.83-4.7.83-3.86,0-7.12-1.06-9.77-3.26-2.65-2.12-4.24-5-4.77-8.56h28.79c.98,0,1.82-.3,2.5-.91Zm-26.89-13.26c2.27-1.97,5.3-3.03,9.01-3.03,3.33,0,5.98,1.06,8.11,3.03,2.05,2.05,3.33,4.77,3.79,8.11h-25.23c.61-3.33,2.05-6.06,4.32-8.11Z" vector-effect="non-scaling-stroke"/>
  </g>
  <g id="path614253">
    <path class="cls-1" d="m1306.92,278.59c0-3.86-.98-7.5-2.8-10.68s-4.32-5.76-7.5-7.58c-3.18-1.82-6.67-2.8-10.53-2.8s-7.5.98-10.68,2.8c-3.18,1.82-5.68,4.39-7.5,7.58s-2.73,6.74-2.73,10.68.83,7.58,2.5,10.76c1.67,3.18,4.02,5.68,6.97,7.5,3.03,1.89,6.29,2.8,9.92,2.8h18.71c.98,0,1.82-.38,2.58-1.06.68-.68,1.06-1.52,1.06-2.58v-17.42Zm-32.57,7.27c-1.21-2.12-1.74-4.55-1.74-7.27s.53-5.08,1.74-7.27c1.21-2.12,2.8-3.86,4.85-5.08,2.05-1.21,4.32-1.89,6.89-1.89s4.77.68,6.82,1.89c2.05,1.21,3.64,2.95,4.85,5.08,1.14,2.2,1.74,4.62,1.74,7.27s-.61,5.15-1.74,7.27c-1.21,2.12-2.8,3.86-4.85,5.08-2.05,1.21-4.32,1.82-6.82,1.82s-4.85-.61-6.89-1.82c-2.05-1.21-3.64-2.95-4.85-5.08Z" vector-effect="non-scaling-stroke"/>
  </g>
  <g id="path614255">
    <path class="cls-1" d="m1357.37,266.4c-1.59-2.88-3.79-5.15-6.51-6.67-2.65-1.36-5.53-2.12-8.71-2.2-.08,0-.23-.08-.23-.08h-17.42c-1.06,0-1.89.38-2.58,1.06-.76.76-1.06,1.59-1.06,2.58v34.39c0,1.14.3,2.05,1.06,2.8.76.76,1.67,1.06,2.8,1.06s2.05-.3,2.8-1.06c.68-.76,1.06-1.67,1.06-2.8v-21.36c0-1.82.45-3.41,1.44-4.92.98-1.44,2.35-2.58,4.09-3.48,1.74-.83,3.71-1.29,5.83-1.29,3.64,0,6.51,1.06,8.71,3.18,2.2,2.12,3.33,5.23,3.33,9.24v18.64c0,1.14.3,2.05,1.06,2.8.76.76,1.67,1.06,2.8,1.06,1.06,0,1.97-.3,2.73-1.06.76-.76,1.14-1.67,1.14-2.8v-18.64c0-4.09-.83-7.58-2.35-10.45Z" vector-effect="non-scaling-stroke"/>
  </g>
  <g id="path614257">
    <path class="cls-1" d="m1376.68,258.89c-.76.76-1.06,1.67-1.06,2.8v33.71c0,1.14.3,2.05,1.06,2.8.76.76,1.67,1.06,2.8,1.06s2.05-.3,2.8-1.06c.68-.76,1.06-1.67,1.06-2.8v-33.71c0-1.14-.38-2.05-1.06-2.8-.76-.68-1.67-1.06-2.8-1.06s-2.05.38-2.8,1.06Z" vector-effect="non-scaling-stroke"/>
  </g>
  <g id="path614259">
    <path class="cls-1" d="m1436.69,266.4c-1.59-2.88-3.79-5.15-6.51-6.67-2.65-1.36-5.53-2.12-8.71-2.2-.08,0-.23-.08-.23-.08h-17.42c-1.06,0-1.89.38-2.58,1.06-.76.76-1.06,1.59-1.06,2.58v34.39c0,1.14.3,2.05,1.06,2.8.76.76,1.67,1.06,2.8,1.06s2.05-.3,2.8-1.06c.68-.76,1.06-1.67,1.06-2.8v-21.36c0-1.82.45-3.41,1.44-4.92.98-1.44,2.35-2.58,4.09-3.48,1.74-.83,3.71-1.29,5.83-1.29,3.64,0,6.51,1.06,8.71,3.18,2.2,2.12,3.33,5.23,3.33,9.24v18.64c0,1.14.3,2.05,1.06,2.8.76.76,1.67,1.06,2.8,1.06,1.06,0,1.97-.3,2.73-1.06.76-.76,1.14-1.67,1.14-2.8v-18.64c0-4.09-.83-7.58-2.35-10.45Z" vector-effect="non-scaling-stroke"/>
  </g>
  <g id="path614261">
    <path class="cls-1" d="m1483.62,260.23c-3.18-1.82-6.74-2.73-10.68-2.73s-7.65.91-10.83,2.73c-3.18,1.82-5.68,4.24-7.42,7.42-1.82,3.18-2.65,6.82-2.65,10.91s.76,7.65,2.42,10.83c1.67,3.18,3.94,5.68,6.89,7.5,2.95,1.82,6.29,2.65,10.08,2.65,3.18,0,6.14-.76,8.71-2.35,2.58-1.52,4.62-3.71,6.21-6.51v3.71c0,3.18-.61,5.98-1.82,8.26-1.21,2.27-2.88,4.01-4.85,5.23-2.05,1.21-4.32,1.74-6.74,1.74-2.65,0-5-.45-7.04-1.36-2.12-.91-3.79-2.27-5.15-4.09-.83-1.06-1.89-1.59-3.11-1.59-.76,0-1.44.23-2.12.68-1.06.76-1.59,1.67-1.59,2.73,0,.76.23,1.44.83,2.12,2.12,2.73,4.7,4.77,7.88,6.21,3.11,1.44,6.51,2.12,10.15,2.12,4.01,0,7.65-.91,10.83-2.8,3.18-1.89,5.68-4.47,7.5-7.8,1.74-3.26,2.65-6.89,2.65-10.91v-16.36c0-4.09-.91-7.73-2.73-10.91-1.82-3.18-4.24-5.61-7.42-7.42Zm-3.79,30.68c-2.05,1.21-4.32,1.82-6.89,1.82s-4.92-.61-6.97-1.82c-2.05-1.21-3.64-2.88-4.77-5-1.21-2.12-1.74-4.62-1.74-7.35s.53-5.15,1.74-7.35c1.14-2.12,2.73-3.86,4.77-5.08,2.05-1.21,4.39-1.82,6.97-1.82s4.85.61,6.89,1.82c2.05,1.21,3.64,2.95,4.77,5.08,1.14,2.2,1.74,4.62,1.74,7.35s-.61,5.23-1.74,7.35c-1.14,2.12-2.73,3.79-4.77,5Z" vector-effect="non-scaling-stroke"/>
  </g>
  <g id="path614263">
    <path class="cls-1" d="m1531.67,259.35v25.23c0,2.8.53,5.3,1.74,7.5,1.14,2.27,2.73,4.01,4.77,5.3,2.05,1.29,4.32,1.89,6.82,1.89h1.36c1.29,0,2.35-.3,3.18-1.06.83-.68,1.29-1.59,1.29-2.73,0-1.06-.38-1.97-.98-2.73-.61-.68-1.36-1.06-2.27-1.06h-2.58c-1.67,0-3.03-.68-4.09-2.05-1.14-1.36-1.67-3.03-1.67-5.08v-18.71h6.44c1.06,0,1.89-.3,2.58-.91.61-.61.98-1.36.98-2.27,0-.98-.38-1.82-.98-2.42-.68-.61-1.52-.91-2.58-.91h-6.44v-10.91c0-1.06-.38-1.97-1.06-2.73-.76-.68-1.67-1.06-2.73-1.06-1.14,0-2.05.38-2.73,1.06-.76.76-1.06,1.67-1.06,2.73v10.91Z" vector-effect="non-scaling-stroke"/>
  </g>
  <g id="path614265">
    <path class="cls-1" d="m1592.62,259.71c-2.8-1.52-5.91-2.27-9.39-2.27-2.58,0-4.92.45-7.12,1.36-2.27.91-4.17,2.12-5.76,3.71v-18.56c0-1.14-.38-2.05-1.06-2.8-.76-.68-1.67-1.06-2.8-1.06s-2.05.38-2.8,1.06c-.76.76-1.06,1.67-1.06,2.8v51.51c0,1.14.3,2.05,1.06,2.8.76.76,1.67,1.06,2.8,1.06s2.05-.3,2.8-1.06c.68-.76,1.06-1.67,1.06-2.8v-21.36c0-1.82.45-3.41,1.44-4.92.98-1.44,2.35-2.58,4.09-3.48,1.74-.83,3.71-1.29,5.83-1.29,3.64,0,6.51,1.06,8.71,3.18,2.2,2.12,3.33,5.15,3.33,9.24v18.64c0,1.14.3,2.05,1.06,2.8.76.76,1.67,1.06,2.8,1.06,1.06,0,1.97-.3,2.73-1.06.76-.76,1.14-1.67,1.14-2.8v-18.64c0-4.09-.83-7.58-2.35-10.45-1.59-2.88-3.79-5.15-6.51-6.67Z" vector-effect="non-scaling-stroke"/>
  </g>
  <g id="path614267">
    <path class="cls-1" d="m1652.98,280.33c.61-.61.98-1.44.98-2.42,0-3.94-.76-7.5-2.27-10.61-1.52-3.03-3.71-5.45-6.51-7.2-2.88-1.67-6.21-2.58-10.08-2.58s-7.5.91-10.61,2.73-5.53,4.32-7.27,7.5c-1.74,3.18-2.58,6.82-2.58,10.83s.91,7.65,2.73,10.83c1.82,3.18,4.39,5.68,7.73,7.5,3.26,1.82,6.97,2.65,11.14,2.65,2.27,0,4.7-.38,7.27-1.29,2.58-.83,4.7-1.97,6.44-3.33.76-.61,1.21-1.36,1.21-2.27s-.45-1.82-1.36-2.58c-.61-.45-1.36-.76-2.27-.76-.98,0-1.82.3-2.5.83-1.06.83-2.42,1.52-4.09,2.05-1.67.61-3.18.83-4.7.83-3.86,0-7.12-1.06-9.77-3.26-2.65-2.12-4.24-5-4.77-8.56h28.79c.98,0,1.82-.3,2.5-.91Zm-26.89-13.26c2.27-1.97,5.3-3.03,9.01-3.03,3.33,0,5.98,1.06,8.11,3.03,2.05,2.05,3.33,4.77,3.79,8.11h-25.23c.61-3.33,2.05-6.06,4.32-8.11Z" vector-effect="non-scaling-stroke"/>
  </g>
  <g id="path614269">
    <path class="cls-1" d="m1734.73,258.66c-.53-.53-1.29-.83-2.35-.83-1.97,0-3.26,1.21-3.94,3.48l-8.33,26.06-6.82-26.67c-.3-.83-.76-1.52-1.36-2.05-.61-.53-1.44-.83-2.35-.83-1.06,0-1.89.3-2.5.83-.61.53-1.06,1.21-1.29,2.05l-7.73,26.14-8.18-25.53c-.45-1.21-.98-2.05-1.59-2.65-.61-.53-1.44-.83-2.35-.83-2.12,0-3.18,1.06-3.18,3.18,0,.76.08,1.52.3,2.12l11.21,33.63c.23.76.68,1.36,1.36,1.82.68.45,1.44.68,2.27.68.76,0,1.52-.23,2.2-.68.68-.45,1.14-1.06,1.44-1.82l7.8-27.5,7.42,27.5c.15.76.61,1.36,1.29,1.82.68.45,1.44.68,2.35.68.76,0,1.52-.23,2.2-.68.61-.45,1.06-1.06,1.36-1.82l11.21-33.63c.23-.61.38-1.36.38-2.2,0-.91-.3-1.67-.83-2.27Z" vector-effect="non-scaling-stroke"/>
  </g>
  <g id="path614271">
    <path class="cls-1" d="m1773.93,260.25c-3.18-1.82-6.74-2.73-10.68-2.73s-7.65.91-10.83,2.73-5.68,4.24-7.42,7.42c-1.82,3.18-2.65,6.82-2.65,10.91s.83,7.65,2.65,10.83c1.74,3.18,4.24,5.68,7.42,7.5,3.18,1.82,6.74,2.65,10.83,2.65s7.58-.83,10.76-2.65c3.18-1.82,5.61-4.32,7.42-7.5,1.74-3.18,2.65-6.74,2.65-10.83s-.91-7.73-2.73-10.91-4.24-5.61-7.42-7.42Zm-17.65,5.91c2.05-1.21,4.39-1.82,6.97-1.82s4.85.61,6.89,1.82c2.05,1.21,3.64,2.95,4.77,5.08,1.14,2.2,1.74,4.62,1.74,7.35s-.61,5.23-1.74,7.35c-1.14,2.12-2.73,3.79-4.77,5-2.05,1.21-4.32,1.82-6.89,1.82s-4.92-.61-6.97-1.82-3.64-2.88-4.77-5c-1.21-2.12-1.74-4.62-1.74-7.35s.53-5.15,1.74-7.35c1.14-2.12,2.73-3.86,4.77-5.08Z" vector-effect="non-scaling-stroke"/>
  </g>
  <g id="path614273">
    <path class="cls-1" d="m1824.61,258.57c-1.52-.76-3.64-1.21-6.29-1.21s-4.92.53-7.12,1.52c-2.27,1.06-4.09,2.42-5.61,4.17v-1.44c0-2.5-1.29-3.79-3.79-3.79-1.21,0-2.2.38-2.8.98-.68.68-.98,1.59-.98,2.8v33.86c0,1.29.3,2.27.98,2.88.61.61,1.59.91,2.8.91s2.2-.3,2.8-.98c.61-.61.98-1.59.98-2.8v-22.12c0-2.8,1.06-5.08,3.33-6.74,2.2-1.67,5.15-2.5,8.79-2.5,1.21,0,2.88.23,4.92.53.45.15.83.15,1.14.15,1.52,0,2.58-.76,3.03-2.42,0-.15.08-.38.08-.76,0-1.21-.76-2.2-2.27-3.03Z" vector-effect="non-scaling-stroke"/>
  </g>
  <g id="path614275">
    <path class="cls-1" d="m1836.77,241.17c-.76.76-1.06,1.67-1.06,2.73v41.36c0,2.73.45,5.15,1.44,7.27.91,2.12,2.27,3.79,4.01,5,1.74,1.21,3.71,1.74,5.91,1.74h.15c1.52,0,2.73-.3,3.71-1.06.91-.68,1.44-1.59,1.44-2.73,0-1.06-.38-1.97-.98-2.73-.61-.68-1.44-1.06-2.42-1.06h-1.89c-1.14,0-2.05-.61-2.73-1.82-.76-1.21-1.06-2.73-1.06-4.62v-41.36c0-1.06-.38-1.97-1.06-2.73-.76-.68-1.67-1.06-2.73-1.06-1.14,0-2.05.38-2.73,1.06Z" vector-effect="non-scaling-stroke"/>
  </g>
  <g id="path614277">
    <path class="cls-1" d="m1857.96,278.51c0,4.01.91,7.58,2.73,10.76s4.39,5.76,7.58,7.58c3.18,1.82,6.74,2.73,10.61,2.73h17.2c1.06,0,1.89-.3,2.58-.98.76-.76,1.06-1.59,1.06-2.58v-52.04c0-1.14-.3-2.05-1.06-2.8-.68-.68-1.59-1.06-2.8-1.06-1.06,0-1.97.38-2.73,1.06-.76.76-1.14,1.67-1.14,2.8v20.45c-1.74-2.12-3.86-3.79-6.44-5.08-2.5-1.21-5.23-1.82-8.18-1.82-3.64,0-6.89.91-9.85,2.73-2.95,1.89-5.3,4.39-6.97,7.58-1.67,3.18-2.58,6.82-2.58,10.68Zm7.42,0c0-2.65.61-5.08,1.82-7.2,1.21-2.12,2.8-3.86,4.85-5.08,2.05-1.21,4.32-1.89,6.82-1.89s4.85.68,6.89,1.89c2.05,1.21,3.64,2.95,4.77,5.08,1.21,2.12,1.74,4.55,1.74,7.2s-.53,5.15-1.74,7.27c-1.14,2.2-2.73,3.94-4.77,5.15s-4.32,1.82-6.89,1.82-4.77-.61-6.82-1.82-3.64-2.95-4.85-5.15c-1.21-2.12-1.82-4.55-1.82-7.27Z" vector-effect="non-scaling-stroke"/>
  </g>
  <g id="path614279">
    <path class="cls-1" d="m1921.64,291.54c-1.06-1.06-2.27-1.59-3.64-1.59-1.44,0-2.65.53-3.71,1.59s-1.52,2.27-1.52,3.71.45,2.65,1.52,3.71c1.06,1.06,2.27,1.52,3.71,1.52s2.65-.45,3.71-1.52c.98-1.06,1.52-2.27,1.52-3.71s-.53-2.65-1.59-3.71Z" vector-effect="non-scaling-stroke"/>
  </g>
  <g id="path614282">
    <rect class="cls-1" x="140.47" y="0" width="76" height="173.72" vector-effect="non-scaling-stroke"/>
  </g>
  <g id="path614282-2" data-name="path614282">
    <rect class="cls-2" x="140.47" y="130.3" width="173.72" height="43.43" vector-effect="non-scaling-stroke"/>
  </g>
  <g id="path614282-3" data-name="path614282">
    <rect class="cls-3" x="140.47" y="130.3" width="76" height="43.43" vector-effect="non-scaling-stroke"/>
  </g>
  <g id="path614284">
    <rect class="cls-2" x="347.94" y="0" width="76" height="43.43" vector-effect="non-scaling-stroke"/>
  </g>
  <g id="path614284-2" data-name="path614284">
    <rect class="cls-1" x="347.94" y="65.15" width="76" height="108.57" vector-effect="non-scaling-stroke"/>
  </g>
  <g id="path614286">
    <rect class="cls-1" x="504.47" y="0" width="76" height="173.72" vector-effect="non-scaling-stroke"/>
  </g>
  <g id="path614286-2" data-name="path614286">
    <rect class="cls-2" x="455.61" y="0" width="173.72" height="43.43" vector-effect="non-scaling-stroke"/>
  </g>
  <g id="path614286-3" data-name="path614286">
    <rect class="cls-3" x="504.47" width="76" height="43.43" vector-effect="non-scaling-stroke"/>
  </g>
  <g id="path614288">
    <rect class="cls-1" x="711.18" y="0" width="76" height="173.72" vector-effect="non-scaling-stroke"/>
  </g>
  <g id="path614288-2" data-name="path614288">
    <rect class="cls-2" x="662.32" y="0" width="173.72" height="43.43" vector-effect="non-scaling-stroke"/>
  </g>
  <g id="path614288-3" data-name="path614288">
    <rect class="cls-3" x="711.18" width="76" height="43.43" vector-effect="non-scaling-stroke"/>
  </g>
  <g id="path614290">
    <rect class="cls-1" x="869.03" y="57.9" width="173.72" height="115.81" vector-effect="non-scaling-stroke"/>
  </g>
  <g id="path614290-2" data-name="path614290">
    <rect class="cls-2" x="869.03" y=".01" width="173.72" height="115.81" vector-effect="non-scaling-stroke"/>
  </g>
  <g id="path614290-3" data-name="path614290">
    <rect class="cls-3" x="869.03" y="57.91" width="173.72" height="57.91" vector-effect="non-scaling-stroke"/>
  </g>
  <g id="path614292">
    <polygon class="cls-2" points="1249.46 173.72 1075.75 173.72 1075.75 0 1249.46 173.72" vector-effect="non-scaling-stroke"/>
  </g>
  <g id="path614292-2" data-name="path614292">
    <path class="cls-1" d="m1184.32.01h-108.57v130.29h108.57c35.98,0,65.14-29.17,65.14-65.14S1220.3.01,1184.32.01Z" vector-effect="non-scaling-stroke"/>
  </g>
  <g id="path614292-3" data-name="path614292">
    <path class="cls-3" d="m1075.73.01v130.29h108.57c6.58,0,12.92-1,18.91-2.81L1075.73.01Z" vector-effect="non-scaling-stroke"/>
  </g>
  <g id="path614294">
    <rect class="cls-1" x="1282.95" y="130.67" width="45.28" height="45.28" vector-effect="non-scaling-stroke"/>
  </g>
  <g id="path614296">
    <rect class="cls-1" x="1358.84" y="0" width="76" height="173.72" vector-effect="non-scaling-stroke"/>
  </g>
  <g id="path614296-2" data-name="path614296">
    <rect class="cls-2" x="1358.84" y="130.3" width="173.72" height="43.43" vector-effect="non-scaling-stroke"/>
  </g>
  <g id="path614296-3" data-name="path614296">
    <rect class="cls-3" x="1358.84" y="130.3" width="76" height="43.43" vector-effect="non-scaling-stroke"/>
  </g>
  <g id="path614298">
    <rect class="cls-2" x="1615.17" y="0" width="76" height="173.72" vector-effect="non-scaling-stroke"/>
  </g>
  <g id="path614298-2" data-name="path614298">
    <path class="cls-1" d="m1566.31.01v43.43c0,47.97,38.89,86.86,86.86,86.86h126.13V.01h-212.99Z" vector-effect="non-scaling-stroke"/>
  </g>
  <g id="path614298-3" data-name="path614298">
    <path class="cls-3" d="m1691.16,130.3h-38c-13.63,0-26.52-3.15-38-8.74V.01h76v130.29Z" vector-effect="non-scaling-stroke"/>
  </g>
</svg>